<?xml version="1.0" encoding="utf-8"?>
<!-- Generator: Adobe Illustrator 19.0.0, SVG Export Plug-In . SVG Version: 6.00 Build 0)  -->
<svg version="1.1" id="图层_1" xmlns="http://www.w3.org/2000/svg" xmlns:xlink="http://www.w3.org/1999/xlink" x="0px" y="0px"
	 viewBox="0 0 850.1 251" style="enable-background:new 0 0 850.1 251;" xml:space="preserve">
<style type="text/css">
	.st0{
	fill:none;
	stroke:#ffffff;
	stroke-miterlimit:10;
	stroke-dasharray: 2000;
	stroke-dashoffset: 2000;
	animation: dash 15s linear forwards;
	}
	@keyframes dash {
    from {
    stroke-dashoffset: 4200;
    }
    to {
    stroke-dashoffset: 0;
        }
    }
</style>
<g id="XMLID_28_">
	<path id="XMLID_29_" class="st0" d="M44.3,65.2v45.2h-8.7v64.9H4.2V3.9h31.4v61.3H44.3z M81,3.9v171.5H49.6V3.9H81z"/>
	<path id="XMLID_32_" class="st0" d="M175.6,120.3h-43.8c-0.7-3.6-1-6.9-1-9.9c0-4.2,0.5-8.3,1.4-12.3h14.7
		c-1-9.3-4.3-13.9-9.7-13.9c-3.6,0-6.5,2.5-8.8,7.5c-2.3,5-3.4,11.4-3.4,19.2c0,8.1,1.1,14.7,3.3,19.7c2.2,5,5.1,7.5,8.6,7.5
		c2.9,0,5.7-2.3,8.3-7l16.5,32.2c-7.7,9.8-16.2,14.7-25.6,14.7c-11.4,0-21-6.2-28.8-18.7c-7.8-12.5-11.7-27.9-11.7-46.4
		c0-18.3,3.9-33.8,11.8-46.5c7.9-12.6,17.5-19,28.9-19c11.2,0,20.6,6.2,28.2,18.5c7.6,12.4,11.4,27.6,11.4,45.7
		C176,113.4,175.9,116.3,175.6,120.3z"/>
	<path id="XMLID_34_" class="st0" d="M216.5,3.9v171.5h-28.9V3.9H216.5z"/>
	<path id="XMLID_36_" class="st0" d="M262.4,3.9v171.5h-28.9V3.9H262.4z"/>
	<path id="XMLID_38_" class="st0" d="M315.8,47.5c10.9,0,20.3,6.4,28.1,19.2c7.8,12.8,11.7,28.1,11.7,45.9c0,18.1-4,33.5-11.9,46.2
		c-7.9,12.7-17.5,19.1-28.6,19.1c-11.2,0-20.7-6.4-28.7-19.2c-7.9-12.8-11.9-28.2-11.9-46.2c0-18.3,4-33.8,11.9-46.3
		C294.4,53.7,304.2,47.5,315.8,47.5z M315.1,93.8c-3.1,0-5.7,1.8-7.9,5.5c-2.2,3.6-3.2,8.1-3.2,13.4c0,5.2,1.1,9.6,3.3,13.3
		c2.2,3.7,4.8,5.5,7.8,5.5c3.1,0,5.7-1.8,7.9-5.5c2.2-3.7,3.3-8.1,3.3-13.3c0-5.3-1.1-9.7-3.2-13.4
		C320.9,95.6,318.2,93.8,315.1,93.8z"/>
	<path id="XMLID_41_" class="st0" d="M518.9,3.9v123.5c0,15.4-2.9,28-8.6,37.7c-5.7,9.7-13.1,14.6-22.2,14.6
		c-10.9,0-19.3-8.1-25-24.2c-3.6,8.7-7.4,14.9-11.4,18.7c-4.1,3.7-9.1,5.6-15.1,5.6c-9.5,0-16.7-4.9-21.8-14.6
		c-5.1-9.7-7.6-23.7-7.6-42V3.9h31.4v111.6c0,5.5,0.3,9.2,0.8,10.9c0.5,1.8,1.6,2.6,3.3,2.6c3.1,0,4.6-4.2,4.6-12.7V3.9h31.4v111.6
		c0,5.4,0.3,9,0.8,10.8c0.6,1.8,1.7,2.8,3.3,2.8c3.1,0,4.6-4.5,4.6-13.6V3.9H518.9z"/>
	<path id="XMLID_43_" class="st0" d="M572.3,47.5c10.9,0,20.3,6.4,28.1,19.2c7.8,12.8,11.7,28.1,11.7,45.9c0,18.1-4,33.5-11.9,46.2
		c-7.9,12.7-17.5,19.1-28.6,19.1c-11.2,0-20.7-6.4-28.7-19.2c-7.9-12.8-11.9-28.2-11.9-46.2c0-18.3,4-33.8,11.9-46.3
		C550.9,53.7,560.7,47.5,572.3,47.5z M571.5,93.8c-3.1,0-5.7,1.8-7.9,5.5c-2.2,3.6-3.2,8.1-3.2,13.4c0,5.2,1.1,9.6,3.3,13.3
		c2.2,3.7,4.8,5.5,7.8,5.5c3.1,0,5.7-1.8,7.9-5.5c2.2-3.7,3.3-8.1,3.3-13.3c0-5.3-1.1-9.7-3.2-13.4
		C577.3,95.6,574.7,93.8,571.5,93.8z"/>
	<path id="XMLID_46_" class="st0" d="M699.9,120.3h-43.8c-0.7-3.6-1-6.9-1-9.9c0-4.2,0.5-8.3,1.4-12.3h14.7
		c-1-9.3-4.2-13.9-9.7-13.9c-3.6,0-6.5,2.5-8.8,7.5c-2.3,5-3.4,11.4-3.4,19.2c0,8.1,1.1,14.7,3.3,19.7c2.2,5,5.1,7.5,8.6,7.5
		c2.9,0,5.7-2.3,8.3-7l16.5,32.2c-7.7,9.8-16.2,14.7-25.6,14.7c-11.4,0-21-6.2-28.8-18.7c-7.8-12.5-11.7-27.9-11.7-46.4
		c0-18.3,3.9-33.8,11.8-46.5c7.9-12.6,17.5-19,28.9-19c11.2,0,20.6,6.2,28.2,18.5c7.6,12.4,11.4,27.6,11.4,45.7
		C700.2,113.4,700.1,116.3,699.9,120.3z"/>
	<path id="XMLID_48_" class="st0" d="M759.3,3.9h28.9v104.4c0,19.2-3.1,34.8-9.3,46.9c-3.6,7-8.1,12.5-13.6,16.6
		c-5.5,4.1-11.1,6.2-16.9,6.2c-11.5,0-21.2-6.3-29.1-18.8c-7.9-12.6-11.8-28-11.8-46.2c0-17.7,3.9-33,11.7-45.9
		c7.8-12.9,17.1-19.3,27.8-19.3c1.7,0,4.3,0.3,7.7,0.8v51.8c-2.4-3-4.7-4.5-7.1-4.5c-3,0-5.6,1.8-7.7,5.3c-2.1,3.6-3.2,7.9-3.2,12.9
		c0,4.9,1.1,9,3.3,12.5c2.2,3.5,4.9,5.2,8,5.2c7.4,0,11.1-8.3,11.1-25V3.9z"/>
	<path id="XMLID_50_" class="st0" d="M829.1,119.1c5,0,9.4,3,13,8.9c3.6,5.9,5.4,13,5.4,21.2c0,8.2-1.8,15.2-5.4,20.9
		c-3.6,5.7-8,8.6-13.1,8.6c-5.3,0-9.7-2.8-13.1-8.4c-3.4-5.6-5.1-12.7-5.1-21.3c0-8.4,1.8-15.5,5.3-21.3
		C819.8,122,824.1,119.1,829.1,119.1z M844,3.9l-0.5,106.4h-27.4L814.4,3.9H844z"/>
</g>
</svg>
